<mxfile host="app.diagrams.net" agent="Mozilla/5.0 (Windows NT 10.0; Win64; x64) AppleWebKit/537.36 (KHTML, like Gecko) Chrome/133.0.0.0 Safari/537.36" version="26.0.16">
  <diagram name="페이지-1" id="d2Epo85eHv9juxaTYMy1">
    <mxGraphModel dx="720" dy="421" grid="0" gridSize="10" guides="1" tooltips="1" connect="1" arrows="1" fold="1" page="0" pageScale="1" pageWidth="827" pageHeight="1169" math="0" shadow="0">
      <root>
        <mxCell id="0" />
        <mxCell id="1" parent="0" />
        <mxCell id="mg8hBVAunWKH7427BzLp-2" value="파일업로드" style="ellipse;whiteSpace=wrap;html=1;" vertex="1" parent="1">
          <mxGeometry x="340" y="660" width="120" height="60" as="geometry" />
        </mxCell>
        <mxCell id="mg8hBVAunWKH7427BzLp-3" value="공지사항 등록" style="ellipse;whiteSpace=wrap;html=1;" vertex="1" parent="1">
          <mxGeometry x="570" y="660" width="120" height="60" as="geometry" />
        </mxCell>
        <mxCell id="mg8hBVAunWKH7427BzLp-4" style="entryX=0;entryY=0.5;entryDx=0;entryDy=0;" edge="1" parent="1" target="mg8hBVAunWKH7427BzLp-2">
          <mxGeometry relative="1" as="geometry">
            <mxPoint x="250" y="690" as="sourcePoint" />
          </mxGeometry>
        </mxCell>
        <mxCell id="mg8hBVAunWKH7427BzLp-5" value="마스터 계정&lt;div&gt;&lt;br&gt;&lt;/div&gt;" style="shape=umlActor;verticalLabelPosition=bottom;verticalAlign=top;html=1;outlineConnect=0;" vertex="1" parent="1">
          <mxGeometry x="30" y="675" width="30" height="60" as="geometry" />
        </mxCell>
        <mxCell id="mg8hBVAunWKH7427BzLp-6" value="" style="endArrow=none;dashed=1;html=1;rounded=0;fontSize=12;startSize=8;endSize=8;curved=1;exitX=1;exitY=0.5;exitDx=0;exitDy=0;" edge="1" parent="1" source="mg8hBVAunWKH7427BzLp-2">
          <mxGeometry width="50" height="50" relative="1" as="geometry">
            <mxPoint x="454" y="650" as="sourcePoint" />
            <mxPoint x="543" y="690" as="targetPoint" />
          </mxGeometry>
        </mxCell>
        <mxCell id="mg8hBVAunWKH7427BzLp-7" value="&lt;font style=&quot;font-size: 10px; font-weight: normal;&quot;&gt;&amp;lt;&amp;lt;incloude&amp;gt;&amp;gt;&lt;/font&gt;" style="text;strokeColor=none;fillColor=none;html=1;fontSize=24;fontStyle=1;verticalAlign=middle;align=center;" vertex="1" parent="1">
          <mxGeometry x="410" y="625" width="170" height="95" as="geometry" />
        </mxCell>
        <mxCell id="mg8hBVAunWKH7427BzLp-8" value="" style="triangle;whiteSpace=wrap;html=1;" vertex="1" parent="1">
          <mxGeometry x="540" y="675" width="20" height="15" as="geometry" />
        </mxCell>
        <mxCell id="mg8hBVAunWKH7427BzLp-9" value="파일크기 검증" style="ellipse;whiteSpace=wrap;html=1;" vertex="1" parent="1">
          <mxGeometry x="130" y="660" width="120" height="60" as="geometry" />
        </mxCell>
        <mxCell id="mg8hBVAunWKH7427BzLp-10" value="" style="endArrow=classic;html=1;rounded=0;fontSize=12;startSize=8;endSize=8;curved=1;entryX=0;entryY=0.5;entryDx=0;entryDy=0;" edge="1" parent="1" target="mg8hBVAunWKH7427BzLp-9">
          <mxGeometry width="50" height="50" relative="1" as="geometry">
            <mxPoint x="80" y="690" as="sourcePoint" />
            <mxPoint x="170" y="710" as="targetPoint" />
          </mxGeometry>
        </mxCell>
      </root>
    </mxGraphModel>
  </diagram>
</mxfile>
